<svg id="Layer_1" data-name="Layer 1" xmlns="http://www.w3.org/2000/svg" xmlns:xlink="http://www.w3.org/1999/xlink" viewBox="0 0 239.57 177.32"><defs><style>.cls-1,.cls-10,.cls-5,.cls-6,.cls-8,.cls-9{fill:none;}.cls-2{fill:#231f20;}.cls-3{clip-path:url(#clip-path);}.cls-4{fill:#fff;}.cls-5,.cls-9{stroke:#231f20;}.cls-10,.cls-5,.cls-6,.cls-9{stroke-linejoin:round;}.cls-5{stroke-width:5.93px;}.cls-10,.cls-6{stroke:#00a887;stroke-width:0.79px;}.cls-7{fill:#ffc627;}.cls-8{stroke:#ffc627;stroke-miterlimit:10;stroke-width:0.25px;}.cls-10,.cls-9{stroke-linecap:round;}.cls-9{stroke-width:4.35px;}</style><clipPath id="clip-path"><rect class="cls-1" x="79.13" width="81.04" height="89.97"/></clipPath></defs><title>primary-logo</title><path class="cls-2" d="M23.2,151.58V149.9c3.17-.58,2.93-1.25,2.11-2.78-.48-.86-1.58-2.69-5.14-8.64-2.26,3.41-4.22,6.53-5.23,8.45s-.72,2.45,2.5,3v1.68h-12V149.9a8.05,8.05,0,0,0,5.71-2.64c1.73-2.16,5.09-6.53,7.82-10.66-2.3-3.79-4.27-7.15-6.82-11.14-1.34-2.26-2.64-3.07-5.9-3.41v-1.68H20.65v1.68c-2.64.58-2.54,1.15-2,2.26.82,1.54,2.3,4.08,4.32,7.25a51.8,51.8,0,0,0,4.32-6.72c.91-1.73.77-2.21-2.3-2.78v-1.68H36.59v1.68c-3.07.38-4.37,1-6.34,3.31-1.63,1.92-3.7,4.75-6,7.92,2.83,4.46,5.18,8.3,8,12.63,2,3.12,3.07,3.65,6.38,4v1.68Z"/><path class="cls-2" d="M68.8,151.58V149.9c2.83-.43,3.07-1,2.3-3.12-.48-1.44-1.2-3.5-1.92-5.42H60c-.53,1.49-1.15,3.22-1.73,5.14-.72,2.3-.58,3,2.93,3.41v1.68H50.41V149.9c3.17-.38,3.79-.91,5.38-4.94l9.84-24.67,2.45-.62c3.07,8.4,6,16.75,9.17,25,1.63,4.22,2.21,4.85,5.28,5.23v1.68Zm-4.08-23.19h-.14c-1.34,3.5-2.54,7-3.79,10.42h7.49Z"/><path class="cls-2" d="M123.47,122.1c-3.12.34-4,.91-5.91,5.47-1.58,3.74-6,14.64-9.7,24.53h-2.4c-3.26-8.78-7.78-20.35-9.75-25.35-1.49-3.7-2.26-4.37-5.23-4.66v-1.73H104.8v1.73c-3.5.53-3.5,1.06-2.78,3.12,1.39,3.84,5.18,13.59,6.91,18.1h.14c2.64-7,4.7-12.58,6-16.75,1.1-3.31,1.1-4-2.83-4.46v-1.73h11.23Z"/><path class="cls-2" d="M136.43,151.58V149.9c3.6-.34,4-.67,4-4.7V126.81c0-4.13-.43-4.42-4-4.75v-1.68h14.45v1.68c-3.6.34-4,.62-4,4.75v18.39c0,4,.38,4.37,4,4.7v1.68Z"/><path class="cls-2" d="M191,143.61c-.34,2.16-1.3,6.53-1.68,8H164.79V149.9c4.08-.34,4.56-.62,4.56-4.7V126.76c0-4.18-.48-4.42-3.89-4.7v-1.68h22.61c0,.86.29,4.22.48,7.2l-1.78.24a9.46,9.46,0,0,0-1.92-4.13c-.82-.86-2.11-1.2-4.8-1.2h-2.3c-1.78,0-2,.1-2,1.68v10.18H179c4,0,4.71-.24,5.33-3.6h1.73v9.65h-1.73c-.62-3.46-1.25-3.65-5.33-3.65h-3.22v8.35c0,2.3.19,3.46,1.15,3.94a12.68,12.68,0,0,0,4.32.48c2.5,0,4.18-.34,5.28-1.54a16,16,0,0,0,2.69-4.7Z"/><path class="cls-2" d="M233.58,152c-.29,0-.82,0-1.44,0-6-.29-7.87-1.63-9.84-4.66-1.25-2-2.54-4.56-3.94-7.1a3.24,3.24,0,0,0-3.17-2.06h-.91v7c0,4,.43,4.42,4.08,4.75v1.68h-14.5V149.9c3.6-.34,4.13-.77,4.13-4.75V126.71c0-3.84-.43-4.32-3.94-4.66v-1.68h13.49c4.22,0,6.63.48,8.59,1.78a7.33,7.33,0,0,1,3.22,6.38c0,4.22-2.78,6.53-6,7.82.72,1.44,2.5,4.61,3.94,6.82a39.1,39.1,0,0,0,3.65,5.23,7.33,7.33,0,0,0,2.93,2.06Zm-18-15.79c2,0,3.65-.34,4.71-1.25a6.91,6.91,0,0,0,2.3-5.71c0-5.14-3-7-5.66-7a3.24,3.24,0,0,0-2.16.48c-.34.29-.43.77-.43,1.78v11.67Z"/><path class="cls-2" d="M10.5,166v-.35h2.94V166c-1,0-1.14.2-1.14,1.4v2.77A2.72,2.72,0,0,1,9.41,173a2.7,2.7,0,0,1-2.88-2.88v-2.77c0-1.2-.16-1.4-1.15-1.4v-.35h3.8V166c-1,0-1.15.2-1.15,1.4V170c0,1.55.83,2.27,1.86,2.27s1.76-.72,1.76-2.27v-2.64C11.65,166.19,11.5,166,10.5,166Z"/><path class="cls-2" d="M24.09,167.39c0-1.2-.16-1.4-1.15-1.4v-.35h2.84V166c-1,0-1.15.2-1.15,1.4V173h-.3l-5-5.92v4c0,1.2.16,1.4,1.15,1.4v.35H17.69v-.35c1,0,1.14-.2,1.14-1.4v-3.69c0-1.2-.14-1.4-1.14-1.4v-.35h2.4l4,4.77Z"/><path class="cls-2" d="M30.28,172.84v-.35c1,0,1.14-.2,1.14-1.4v-3.69c0-1.2-.14-1.4-1.14-1.4v-.35h3.79V166c-1,0-1.15.2-1.15,1.4v3.69c0,1.2.16,1.4,1.15,1.4v.35Z"/><path class="cls-2" d="M44.6,167,42,173h-.25l-2.61-6c-.34-.78-.5-1.06-1.46-1.06v-.35H41.6V166c-1.06,0-1.18.28-.9.91l1.68,3.9,1.69-3.9c.28-.65.1-.91-.9-.91v-.35h2.9V166C45.25,166,45,166.19,44.6,167Z"/><path class="cls-2" d="M49.68,172.49c1,0,1.14-.2,1.14-1.4v-3.69c0-1.2-.14-1.4-1.14-1.4v-.35h6.18l.1,1.69H55.6l-.06-.24c-.17-.64-.29-.91-1.39-.91H52.32v2.58H53c1.2,0,1.39-.16,1.39-1.15h.35v2.84h-.35c0-1-.19-1.15-1.39-1.15h-.66v1.6c0,1.2.16,1.4,1.15,1.4h1.08c1.1,0,1.24-.28,1.39-.91l.06-.24h.35l-.1,1.69H49.68Z"/><path class="cls-2" d="M66.45,171c1.06,1.16,1.51,1.44,2.24,1.54v.35h-2.6L64,169.68h-.35v1.4c0,1.2.16,1.4,1.15,1.4v.35H61v-.35c1,0,1.14-.2,1.14-1.4v-3.69c0-1.2-.14-1.4-1.14-1.4v-.35h4a2.16,2.16,0,0,1,2.42,2,2.1,2.1,0,0,1-2.12,2Zm-.65-3.29a1.4,1.4,0,0,0-1.54-1.49h-.66v3h.66A1.4,1.4,0,0,0,65.8,167.67Z"/><path class="cls-2" d="M73.31,173H73V170.4h.36a2.39,2.39,0,0,0,2.21,2.1,1.1,1.1,0,0,0,1.2-1.19,1.48,1.48,0,0,0-.89-1.21l-1.14-.6a2.36,2.36,0,0,1-1.63-2.27,2,2,0,0,1,2.09-1.8,2.24,2.24,0,0,1,1.46.49,1,1,0,0,0,.35-.55h.33V168H77c-.08-1-.47-2.05-1.73-2.05a1,1,0,0,0-1,1,1.6,1.6,0,0,0,1,1.22l1.15.59a2.52,2.52,0,0,1,1.55,2.12A2.28,2.28,0,0,1,75.53,173a5.33,5.33,0,0,1-1.87-.56A1,1,0,0,0,73.31,173Z"/><path class="cls-2" d="M82.54,172.84v-.35c1,0,1.14-.2,1.14-1.4v-3.69c0-1.2-.14-1.4-1.14-1.4v-.35h3.79V166c-1,0-1.15.2-1.15,1.4v3.69c0,1.2.16,1.4,1.15,1.4v.35Z"/><path class="cls-2" d="M98,167.33h-.35l-.06-.24c-.16-.64-.29-.91-1.39-.91H95v4.91c0,1.2.16,1.4,1.15,1.4v.35H92.34v-.35c1,0,1.14-.2,1.14-1.4v-4.91h-1.2c-1.09,0-1.22.28-1.38.91l-.06.24h-.36l.11-1.69h7.29Z"/><path class="cls-2" d="M108,167l-1.72,2.59v1.45c0,1.2.14,1.4,1.14,1.4v.35h-3.74v-.35c1,0,1.15-.2,1.15-1.4v-1.42L103.13,167c-.56-.85-.89-1.06-1.74-1.06v-.35h4.07V166c-.84,0-1.07.28-.64.91l1.34,2,1.34-2c.43-.65.3-.91-.65-.91v-.35h2.9V166C108.76,166,108.54,166.26,108,167Z"/><path class="cls-2" d="M121.27,173c-1,0-1.65-1-1.44-2.21a2.56,2.56,0,0,1,2.22-2.19c1,0,1.63,1,1.42,2.19A2.56,2.56,0,0,1,121.27,173Zm.71-4c-.72,0-1.19.82-1.37,1.82s0,1.83.72,1.83,1.2-.83,1.37-1.83S122.69,169,122,169Z"/><path class="cls-2" d="M128.05,169.26l.07-.42h.78l.2-1.19c.24-1.43,1.19-2.22,1.92-2.22s1.08.53,1,.89a.36.36,0,0,1-.38.3c-.52,0-.06-.84-.74-.84-.37,0-.91.52-1.14,1.87l-.2,1.19h1l-.07.42h-1l-.86,4.86c-.25,1.42-.86,1.92-1.57,1.92s-1-.5-.95-.85a.38.38,0,0,1,.4-.34c.52,0,0,.84.66.84.36,0,.59-.42.79-1.57l.86-4.86Z"/><path class="cls-2" d="M140.66,166v-.35h3.79V166c-1,0-1.15.2-1.15,1.4v3.5c0,1.2.16,1.4,1.15,1.4h1.38c1.1,0,1.24-.28,1.39-.91l.06-.24h.35l-.1,1.69h-6.87v-.35c1,0,1.14-.2,1.14-1.4v-3.69C141.8,166.19,141.66,166,140.66,166Z"/><path class="cls-2" d="M155.8,173a3.81,3.81,0,1,1,4-3.8A3.92,3.92,0,0,1,155.8,173Zm0-7c-1.7,0-2.39,1.77-2.39,3.23s.68,3.23,2.39,3.23,2.39-1.78,2.39-3.23S157.5,166,155.8,166Z"/><path class="cls-2" d="M169.29,166v-.35h2.94V166c-1,0-1.14.2-1.14,1.4v2.77a2.88,2.88,0,0,1-5.77,0v-2.77c0-1.2-.16-1.4-1.15-1.4v-.35H168V166c-1,0-1.15.2-1.15,1.4V170c0,1.55.83,2.27,1.86,2.27s1.76-.72,1.76-2.27v-2.64C170.44,166.19,170.3,166,169.29,166Z"/><path class="cls-2" d="M176.65,172.84v-.35c1,0,1.14-.2,1.14-1.4v-3.69c0-1.2-.14-1.4-1.14-1.4v-.35h3.79V166c-1,0-1.15.2-1.15,1.4v3.69c0,1.2.16,1.4,1.15,1.4v.35Z"/><path class="cls-2" d="M185.55,173h-.35V170.4h.36a2.39,2.39,0,0,0,2.21,2.1,1.1,1.1,0,0,0,1.2-1.19,1.48,1.48,0,0,0-.89-1.21l-1.14-.6a2.36,2.36,0,0,1-1.63-2.27,2,2,0,0,1,2.09-1.8,2.24,2.24,0,0,1,1.46.49,1,1,0,0,0,.35-.55h.33V168h-.35c-.08-1-.47-2.05-1.73-2.05a1,1,0,0,0-1,1,1.6,1.6,0,0,0,1,1.22l1.15.59a2.52,2.52,0,0,1,1.55,2.12,2.28,2.28,0,0,1-2.39,2.18,5.33,5.33,0,0,1-1.87-.56A1,1,0,0,0,185.55,173Z"/><path class="cls-2" d="M194.78,172.84v-.35c1,0,1.14-.2,1.14-1.4v-3.69c0-1.2-.14-1.4-1.14-1.4v-.35h3.79V166c-1,0-1.15.2-1.15,1.4v3.69c0,1.2.16,1.4,1.15,1.4v.35Z"/><path class="cls-2" d="M204.18,171.58c-.28.65-.1.91.9.91v.35h-2.9v-.35c.83,0,1.1-.2,1.48-1.06l2.6-6h.25l2.61,6c.34.77.5,1.06,1.46,1.06v.35h-3.91v-.35c1.06,0,1.17-.28.9-.91l-.5-1.14h-2.4Zm1.7-3.93-1,2.25h1.93Z"/><path class="cls-2" d="M220.59,167.39c0-1.2-.16-1.4-1.15-1.4v-.35h2.84V166c-1,0-1.15.2-1.15,1.4V173h-.3l-5-5.92v4c0,1.2.16,1.4,1.15,1.4v.35h-2.83v-.35c1,0,1.14-.2,1.14-1.4v-3.69c0-1.2-.14-1.4-1.14-1.4v-.35h2.4l4,4.77Z"/><path class="cls-2" d="M227.49,171.58c-.28.65-.1.91.9.91v.35h-2.9v-.35c.83,0,1.1-.2,1.48-1.06l2.6-6h.25l2.61,6c.34.77.5,1.06,1.46,1.06v.35H230v-.35c1.06,0,1.17-.28.9-.91l-.5-1.14H228Zm1.7-3.93-1,2.25h1.93Z"/><g id="Artwork_8" data-name="Artwork 8"><g class="cls-3"><g class="cls-3"><path class="cls-4" d="M84.5,2.76v50c0,19,35.15,34.46,35.15,34.46l.19-.09.09,0,.9-.42.21-.1c1-.45,2.36-1.14,4.06-2h0c1-.54,2.15-1.15,3.34-1.83s2.27-1.32,3.47-2.06c.94-.58,1.89-1.19,2.86-1.83s1.81-1.22,2.72-1.88h0q1.24-.88,2.47-1.83t2.38-1.92q1.06-.89,2.08-1.83c.73-.67,1.43-1.35,2.11-2.05s1.15-1.21,1.69-1.83,1-1.24,1.53-1.87.9-1.21,1.31-1.83a20,20,0,0,0,3.73-11v-50Z"/><path class="cls-5" d="M84.5,2.76v50c0,19,35.15,34.46,35.15,34.46l.19-.09.09,0,.9-.42.21-.1c1-.45,2.36-1.14,4.06-2h0c1-.54,2.15-1.15,3.34-1.83s2.27-1.32,3.47-2.06c.94-.58,1.89-1.19,2.86-1.83s1.81-1.22,2.72-1.88h0q1.24-.88,2.47-1.83t2.38-1.92q1.06-.89,2.08-1.83c.73-.67,1.43-1.35,2.11-2.05s1.15-1.21,1.69-1.83,1-1.24,1.53-1.87.9-1.21,1.31-1.83a20,20,0,0,0,3.73-11v-50Z"/><path class="cls-6" d="M84.5,2.76v50c0,19,35.15,34.46,35.15,34.46l.19-.09.09,0,.9-.42.21-.1c1-.45,2.36-1.14,4.06-2h0c1-.54,2.15-1.15,3.34-1.83s2.27-1.32,3.47-2.06c.94-.58,1.89-1.19,2.86-1.83s1.81-1.22,2.72-1.88h0q1.24-.88,2.47-1.83t2.38-1.92q1.06-.89,2.08-1.83c.73-.67,1.43-1.35,2.11-2.05s1.15-1.21,1.69-1.83,1-1.24,1.53-1.87.9-1.21,1.31-1.83a20,20,0,0,0,3.73-11v-50Z"/><path class="cls-7" d="M119.64,5.51V84.15S87.31,69.78,87.31,52.06V5.51Z"/><line class="cls-8" x1="119.64" y1="5.51" x2="119.64" y2="84.15"/><path class="cls-2" d="M82.85,52.65c8.08,1.22,16.32,2,24.5,2.45,4.08.2,8.22.31,12.3.31s8.22-.1,12.3-.31c8.17-.41,16.41-1.23,24.5-2.45l1.66-.25V69.76l-1.17.18c-8.19,1.24-16.54,2.07-24.82,2.48-4.13.21-8.33.31-12.46.31s-8.33-.1-12.46-.31c-8.28-.41-16.63-1.25-24.82-2.48l-1.17-.18V52.4Z"/><path class="cls-9" d="M82.85,52.65c8.08,1.22,16.32,2,24.5,2.45,4.08.2,8.22.31,12.3.31s8.22-.1,12.3-.31c8.17-.41,16.41-1.23,24.5-2.45l1.66-.25V69.76l-1.17.18c-8.19,1.24-16.54,2.07-24.82,2.48-4.13.21-8.33.31-12.46.31s-8.33-.1-12.46-.31c-8.28-.41-16.63-1.25-24.82-2.48l-1.17-.18V52.4Z"/><path class="cls-10" d="M82.85,52.65c8.08,1.22,16.32,2,24.5,2.45,4.08.2,8.22.31,12.3.31s8.22-.1,12.3-.31c8.17-.41,16.41-1.23,24.5-2.45l1.66-.25V69.76l-1.17.18c-8.19,1.24-16.54,2.07-24.82,2.48-4.13.21-8.33.31-12.46.31s-8.33-.1-12.46-.31c-8.28-.41-16.63-1.25-24.82-2.48l-1.17-.18V52.4Z"/><path class="cls-7" d="M101.55,67.16l-1.86-2.87-1.87,2.59-2.07-.18,2.89-3.81-2.77-4.16L98,58.9l1.74,2.73,1.75-2.46,2.07.14L100.79,63l2.89,4.28-2.13-.14"/><path class="cls-7" d="M113.14,67.84a3.35,3.35,0,0,1-3.6-3.66c0-1.82,0-2.74,0-4.56l1.83.07v4.52a1.76,1.76,0,0,0,1.79,2c1.12,0,1.79-.61,1.79-1.88V59.77l1.83,0V64.3a3.21,3.21,0,0,1-3.65,3.54"/><path class="cls-7" d="M123.39,67.77v-8l1.83,0v6.39c1.66,0,2.49-.06,4.14-.12v1.6c-2.39.09-3.58.12-6,.16"/><path class="cls-7" d="M141.66,66.86l-.76-1.73-3.51.26-.76,1.84-1.86.12c1.42-3.3,2.13-5,3.56-8.27L140,59l3.55,7.74-1.91.17m-2.51-5.73L138,63.8l2.2-.17-1.1-2.5"/><path class="cls-4" d="M103,42.29c-3.35,0-7.29-1.27-8.58-4.08a5,5,0,0,0-.61,2.62c0,4.46,4.64,7.56,9.18,7.56s8.23-3.1,8.23-7.56a4.92,4.92,0,0,0-.37-2.62c-1.29,2.81-4.52,4.08-7.86,4.08"/><polygon class="cls-4" points="102.19 27.36 97.84 24.5 97.84 21.71 102.19 24.58 102.19 27.36"/><polygon class="cls-4" points="107.19 21.71 102.84 24.58 102.84 27.36 107.19 24.5 107.19 21.71"/><polygon class="cls-4" points="102.19 23.65 97.84 20.79 97.84 18 102.19 20.86 102.19 23.65"/><polygon class="cls-4" points="107.19 18 102.84 20.86 102.84 23.65 107.19 20.79 107.19 18"/><polygon class="cls-4" points="102.2 20.16 97.85 17.3 97.85 14.51 102.2 17.37 102.2 20.16"/><polygon class="cls-4" points="107.2 14.51 102.84 17.38 102.84 20.16 107.2 17.3 107.2 14.51"/><polygon class="cls-4" points="107.26 25.29 107.26 27.78 102.53 30.94 102.53 30.97 97.79 27.8 97.79 25.32 102.53 28.48 102.53 28.46 107.26 25.29"/><rect class="cls-4" x="101.64" y="30.39" width="1.77" height="4.36"/><polygon class="cls-4" points="103.17 10.91 103.17 16.43 102.52 16.73 101.88 16.43 101.88 10.91 103.17 10.91"/><polygon class="cls-4" points="104.94 11.77 104.94 15.46 103.64 16.32 103.64 11.77 104.94 11.77"/><polygon class="cls-4" points="100.17 11.77 100.17 15.46 101.47 16.32 101.47 11.77 100.17 11.77"/><path class="cls-7" d="M139.92,15.15c-.37-1.3-.56-1.35-1.67-.43l-.41-.33c-.2-.16-.46-.29-.68-.14a1.85,1.85,0,0,0-.39.55s0,0,0,.06c-.09.72-.09.72-.8.63l-2.27-.27c-.42,0-.57.06-.62.47-.07.58-.14,1.17-.21,1.75a.43.43,0,0,0,.35.52,4.36,4.36,0,0,0,.59,0c.49.05.56.72.61,1.18a.7.7,0,0,1-.73-.19,4.58,4.58,0,0,0-.41-.49c-.27-.25-.51-.46-.72-.14l-.3.46c-.23.37-.22.48.08.78l1,1c-.51.52-.55.73-.18,1.34s.35.62-.24.92a13.85,13.85,0,0,0-2.7,2.15.54.54,0,0,1-.5.15c-.78-.12-1.57-.23-2.35-.34a.45.45,0,0,1-.42-.29,4.32,4.32,0,0,0-.29-.53.4.4,0,0,0-.65-.12,9.58,9.58,0,0,0-.9.8.63.63,0,0,0-.13.51,15.05,15.05,0,0,0,.51,1.44.55.55,0,0,0,.25.27q2.29,1.15,4.59,2.28a.8.8,0,0,0,.52,0c.45-.13.88-.31,1.36-.48,0,.67,0,1.31.08,1.94a2.7,2.7,0,0,0,.15.74q.62,1.69,1.28,3.36a.42.42,0,0,1-.08.49c-.46.56-.89,1.15-1.34,1.72a.5.5,0,0,0-.08.56q.45,1.09.89,2.18a.41.41,0,0,1,0,.32c-.46.68-.94,1.35-1.45,2.06-.24-.23-.45-.44-.65-.65a.51.51,0,0,0-.7-.1c-.32.18-.66.34-1,.52s-.39.43-.13.69L131.7,45a.42.42,0,0,0,.61,0c1.57-1.07,3.14-2.14,4.69-3.22a.79.79,0,0,0,.29-.49c.11-.82.18-1.64.27-2.49l.92-.06c.25,1.1.51,2.17.74,3.26a.69.69,0,0,0,.59.6c1.63.41,3.24.85,4.86,1.28.42.11.52.07.76-.29l3.38-5.12c.22-.34.21-.46-.08-.75l-3.67-3.63c-.34-.33-.57-.31-.84.09l-1.61,2.44c-.19.28-.16.48.11.66s.6.37.9.56a.41.41,0,0,0,.62-.15c.21-.3.4-.61.62-.95.09.07.16.12.22.18l1.28,1.26c.12.12.17.21.05.38-.71,1.06-1.41,2.12-2.13,3.21L141.14,41a.33.33,0,0,1-.18-.22q-.38-1.58-.73-3.17a.76.76,0,0,1,0-.33,3,3,0,0,0,.19-.66q.1-4.51.16-9a.39.39,0,0,1,.31-.44,5.72,5.72,0,0,0,.76-.31,1.17,1.17,0,0,0,.69-1.09c0-.27,0-.53,0-.8a1,1,0,0,1,.45-.88c.28-.21.56-.42.82-.65A1.2,1.2,0,0,0,144,22.1a4.92,4.92,0,0,0-.38-.91,1.32,1.32,0,0,1-.09-1.08,7.6,7.6,0,0,0,.26-1,1.21,1.21,0,0,0-.6-1.31,5.63,5.63,0,0,0-.79-.42,1.41,1.41,0,0,1-.8-.86c-.11-.3-.18-.61-.27-.92-.17-.62-.44-.77-1.08-.59l-.36.11"/><path class="cls-7" d="M124.28,37.29c.28.28.54.58.85.83a.78.78,0,0,0,.54.18c1.75-.29,3.49-.6,5.23-.91a.69.69,0,0,0,.38-.21c.54-.67,1.06-1.35,1.57-2a.63.63,0,0,0,.08-.5c-.37-1.11-.77-2.21-1.16-3.3-.12-.33-.35-.41-.66-.21-.68.42-1.35.84-2,1.28a.85.85,0,0,0-.29.41,7.7,7.7,0,0,0-.29,1,.88.88,0,0,1-.51.65c-.73.38-1.44.78-2.15,1.18a.28.28,0,0,1-.42-.05c-.15-.18-.33-.33-.5-.5a.4.4,0,0,0-.56,0c-.31.2-.62.41-.92.62s-.33.45-.07.72.59.59.89.88"/><path class="cls-7" d="M126.52,19.34l-.33.32c-.48.48-.48.48-.22,1.07.43,1,.88,2,1.3,2.94a.7.7,0,0,0,.53.45c.51.12,1,.28,1.51.38a.87.87,0,0,0,.57-.11c.5-.31,1-.66,1.46-1,.32-.22.36-.41.15-.73a10.91,10.91,0,0,0-.7-1,.76.76,0,0,0-.5-.25c-.53,0-1.07,0-1.6.06a.33.33,0,0,1-.38-.21,5.92,5.92,0,0,0-.44-.81c-.12-.19-.08-.3.08-.43a4.87,4.87,0,0,0,.47-.45.38.38,0,0,0-.11-.64l-.09,0c-1.06-.45-.76-.51-1.72.44"/></g></g></g></svg>